<?xml-stylesheet type="text/css" href="css/svg-stylesheet.css" ?>
<svg xmlns="http://www.w3.org/2000/svg" xmlns:xlink="http://www.w3.org/1999/xlink" xmlns:sketch="http://www.bohemiancoding.com/sketch/ns" width="124" height="124" viewBox="0 0 124 124" version="1.1">
  <title>
    github
  </title>
  <desc>
    Created with Sketch.
  </desc>
  <defs>
    <path id="path-1" d="M0.01 0.08L81.31 0.08 81.31 81.39 0.01 81.39 0.01 0.08Z"/>
  </defs>
  <g id="Page-1" stroke="none" stroke-width="1" fill="none" fill-rule="evenodd" sketch:type="MSPage">
    <g id="github" sketch:type="MSArtboardGroup">
      <g id="github7" sketch:type="MSLayerGroup" transform="translate(21.342883, 21.243720)">
        <mask id="mask-2" sketch:name="Clip 2" fill="white">
          <use xlink:href="#path-1"/>
        </mask>
        <g id="Clip-2"/>
        <path d="M40.62 0.08C18.18 0.08 0 18.26 0 40.7 0 63.13 18.18 81.31 40.62 81.31 63.05 81.31 81.24 63.13 81.24 40.7 81.24 18.26 63.05 0.08 40.62 0.08L40.62 0.08ZM64.74 64.82C61.6 67.95 57.96 70.41 53.89 72.13 52.86 72.57 51.81 72.95 50.75 73.28L50.75 67.19C50.75 63.99 49.65 61.64 47.46 60.13 48.83 60 50.1 59.82 51.25 59.58 52.4 59.34 53.61 59 54.9 58.55 56.18 58.1 57.33 57.56 58.35 56.94 59.37 56.32 60.34 55.51 61.28 54.52 62.22 53.53 63.01 52.4 63.64 51.15 64.28 49.89 64.78 48.39 65.15 46.63 65.52 44.87 65.71 42.93 65.71 40.82 65.71 36.72 64.37 33.23 61.7 30.34 62.92 27.17 62.78 23.72 61.3 19.99L60.31 19.87C59.62 19.79 58.39 20.08 56.6 20.74 54.82 21.41 52.81 22.49 50.59 24 47.45 23.12 44.18 22.69 40.8 22.69 37.38 22.69 34.13 23.12 31.04 24 29.64 23.05 28.31 22.26 27.05 21.64 25.8 21.02 24.79 20.59 24.04 20.37 23.28 20.14 22.58 20 21.93 19.95 21.29 19.9 20.87 19.89 20.69 19.91 20.5 19.94 20.37 19.96 20.29 19.99 18.81 23.75 18.68 27.2 19.89 30.34 17.22 33.23 15.89 36.72 15.89 40.82 15.89 42.93 16.07 44.87 16.44 46.63 16.81 48.39 17.31 49.89 17.95 51.15 18.58 52.4 19.37 53.53 20.31 54.52 21.25 55.51 22.23 56.32 23.24 56.94 24.26 57.56 25.41 58.1 26.69 58.55 27.98 59 29.19 59.34 30.34 59.58 31.49 59.82 32.76 60 34.13 60.13 31.96 61.61 30.88 63.97 30.88 67.19L30.88 73.4C29.68 73.04 28.5 72.62 27.34 72.13 23.28 70.41 19.63 67.95 16.5 64.82 13.36 61.68 10.9 58.03 9.18 53.97 7.41 49.77 6.51 45.3 6.51 40.7 6.51 36.09 7.41 31.62 9.18 27.42 10.9 23.36 13.36 19.71 16.5 16.58 19.63 13.44 23.28 10.98 27.34 9.26 31.54 7.49 36.01 6.58 40.62 6.58 45.23 6.58 49.69 7.49 53.89 9.26 57.96 10.98 61.6 13.44 64.74 16.58 67.87 19.71 70.33 23.36 72.05 27.42 73.83 31.62 74.73 36.09 74.73 40.7 74.73 45.3 73.83 49.77 72.05 53.97 70.33 58.03 67.87 61.68 64.74 64.82L64.74 64.82Z" id="Fill-1" fill="#FFF" sketch:type="MSShapeGroup" mask="url(#mask-2)"/>
      </g>
    </g>
  </g>
</svg>
