<?xml-stylesheet type="text/css" href="css/svg-stylesheet.css" ?>
<svg xmlns="http://www.w3.org/2000/svg" xmlns:xlink="http://www.w3.org/1999/xlink" xmlns:sketch="http://www.bohemiancoding.com/sketch/ns" width="124" height="124" viewBox="0 0 124 124" version="1.1">
  <title>
    twitter
  </title>
  <desc>
    Created with Sketch.
  </desc>
  <g id="Page-1" stroke="none" stroke-width="1" fill="none" fill-rule="evenodd" sketch:type="MSPage">
    <g id="twitter" sketch:type="MSArtboardGroup" fill="#000000">
      <path d="M100.89 42.59C98.29 43.74 95.48 44.54 92.54 44.89 95.55 43.09 97.84 40.24 98.94 36.84 96.13 38.5 93.01 39.72 89.68 40.36 87.05 37.55 83.26 35.78 79.08 35.78 71.06 35.78 64.55 42.29 64.55 50.31 64.55 51.46 64.68 52.56 64.92 53.62 52.83 53.01 42.12 47.24 34.94 38.44 33.69 40.58 32.97 43.09 32.97 45.75 32.97 50.79 35.55 55.25 39.44 57.84 37.06 57.78 34.83 57.11 32.87 56.02L32.87 56.2C32.87 63.25 37.88 69.13 44.52 70.47 43.31 70.79 42.01 70.97 40.7 70.97 39.77 70.97 38.86 70.88 37.95 70.71 39.81 76.49 45.17 80.68 51.53 80.81 46.55 84.7 40.28 87.02 33.47 87.02 32.3 87.02 31.16 86.95 30.01 86.82 36.45 90.95 44.09 93.35 52.31 93.35 79.04 93.35 93.66 71.2 93.66 52L93.62 50.12C96.48 48.06 98.94 45.51 100.89 42.59L100.89 42.59Z" id="social19" sketch:type="MSShapeGroup" fill="#FFF"/>
    </g>
  </g>
</svg>